<svg width="100" height="100" viewBox="0 0 100 100" fill="none" xmlns="http://www.w3.org/2000/svg">
<path d="M39.0485 26.158H26.9088C26.2095 26.158 25.6289 26.7269 25.6289 27.4414C25.6289 28.1426 26.1963 28.7248 26.9088 28.7248H39.0485C39.7478 28.7248 40.3284 28.1559 40.3284 27.4414C40.3284 26.7269 39.7478 26.158 39.0485 26.158Z" fill="#0057FF"/>
<path d="M39.0485 31.8474H26.9088C26.2095 31.8474 25.6289 32.4163 25.6289 33.1308C25.6289 33.8453 26.1963 34.4142 26.9088 34.4142H39.0485C39.7478 34.4142 40.3284 33.8453 40.3284 33.1308C40.3284 32.4163 39.7478 31.8474 39.0485 31.8474Z" fill="#0057FF"/>
<path d="M34.8788 40.4342C35.5781 40.4342 36.1587 39.8653 36.1587 39.1508C36.1587 38.4496 35.5913 37.8674 34.8788 37.8674H26.9088C26.2095 37.8674 25.6289 38.4364 25.6289 39.1508C25.6289 39.8521 26.1963 40.4342 26.9088 40.4342H34.8788Z" fill="#0057FF"/>
<path d="M30.3397 45.9249C27.0937 45.9249 24.4414 48.571 24.4414 51.839C24.4414 55.107 27.0805 57.7532 30.3397 57.7532C33.5989 57.7532 36.238 55.107 36.238 51.839C36.238 48.571 33.5989 45.9249 30.3397 45.9249ZM30.3397 55.1864C28.4923 55.1864 26.9881 53.6781 26.9881 51.8258C26.9881 49.9735 28.4923 48.4652 30.3397 48.4652C32.187 48.4652 33.6913 49.9735 33.6913 51.8258C33.6913 53.6781 32.187 55.1864 30.3397 55.1864Z" fill="#0057FF"/>
<path d="M30.3397 60.0157C27.0937 60.0157 24.4414 62.6618 24.4414 65.9298C24.4414 69.1846 27.0805 71.844 30.3397 71.844C33.5989 71.844 36.238 69.1978 36.238 65.9298C36.238 62.6751 33.5989 60.0157 30.3397 60.0157ZM30.3397 69.2904C28.4923 69.2904 26.9881 67.7821 26.9881 65.9298C26.9881 64.0775 28.4923 62.5692 30.3397 62.5692C32.187 62.5692 33.6913 64.0775 33.6913 65.9298C33.6913 67.7821 32.187 69.2904 30.3397 69.2904Z" fill="#0057FF"/>
<path d="M90.787 58.0841H71.7199V51.1644H80.2836C80.9829 51.1644 81.5635 50.5955 81.5635 49.8811V25.8937C81.5635 25.1924 80.9961 24.6103 80.2836 24.6103H71.7199V21.3026C71.7199 17.8494 68.9225 15.0444 65.4785 15.0444H13.9511C10.6391 15.0444 7.94727 17.7435 7.94727 21.0644V27.4284C7.94727 28.1297 8.51466 28.7118 9.2272 28.7118H17.4083V78.9094C17.4083 82.9712 20.7071 86.2789 24.7448 86.2789H70.7038C74.2666 86.2789 77.1695 83.0903 77.1695 79.1607C77.1695 78.4595 76.6021 77.8774 75.8896 77.8774H71.7199V71.1164H90.787C91.4863 71.1164 92.0669 70.5475 92.0669 69.8331V59.3411C92.0537 58.6531 91.4863 58.0841 90.787 58.0841ZM53.9327 68.5761V65.877H81.2732V68.5761H53.9327ZM81.2732 63.3235H53.9327V60.6244H81.2732V63.3235ZM76.7605 27.177L62.3512 39.2171L47.942 27.177H76.7605ZM66.4682 39.1112L79.0168 28.6192V47.4995L66.4682 39.1112ZM45.6989 28.6192L58.2475 39.1112L45.6989 47.4995V28.6192ZM60.2796 40.818L61.5331 41.8764C61.7707 42.0749 62.061 42.1675 62.3512 42.1675C62.6415 42.1675 62.9318 42.0749 63.1694 41.8764L64.4229 40.818L76.0875 48.6109H70.4795C70.4663 48.6109 70.4531 48.5977 70.4399 48.5977C70.4267 48.5977 70.4135 48.6109 70.4003 48.6109H48.615L60.2796 40.818ZM10.4939 21.0777C10.4939 19.1592 12.051 17.6112 13.9511 17.6112C14.8616 17.6112 15.7325 17.9684 16.3922 18.63C17.0388 19.2783 17.3951 20.1515 17.3951 21.0777V26.1583H10.4939V21.0777ZM70.6906 83.7254H31.8834C32.6092 82.7728 33.0842 81.6481 33.2821 80.4441H74.4513C73.9763 82.3361 72.472 83.7254 70.6906 83.7254ZM69.16 77.8906H32.121C31.4216 77.8906 30.841 78.4595 30.841 79.174C30.841 80.4044 30.4056 81.5952 29.6534 82.442C28.9145 83.2755 27.9381 83.7386 26.9088 83.7386H24.7316C22.0926 83.7386 19.9417 81.582 19.9417 78.9358V21.0777C19.9417 19.8075 19.5459 18.6167 18.8333 17.6112H65.4653C67.4974 17.6112 69.16 19.2783 69.16 21.3158V24.6235H44.4189C43.7196 24.6235 43.139 25.1924 43.139 25.9069V49.8943C43.139 50.5955 43.7064 51.1777 44.4189 51.1777H69.16V58.0974H52.6659C52.6527 58.0974 52.6396 58.0974 52.6396 58.0974C52.4944 58.0974 52.3624 58.137 52.2305 58.1767C52.2041 58.19 52.1777 58.19 52.1513 58.2032C52.1249 58.2164 52.0985 58.2164 52.0722 58.2297L42.2285 63.469C41.8195 63.694 41.5555 64.1306 41.5555 64.5937C41.5555 65.07 41.8195 65.4934 42.2285 65.7183L52.0722 70.9577C52.0985 70.9709 52.1117 70.9709 52.1381 70.9841C52.1777 70.9974 52.2173 71.0106 52.2437 71.0238C52.3625 71.0635 52.4944 71.09 52.6264 71.1032C52.6396 71.1032 52.6527 71.1164 52.6791 71.1164H69.1864V77.8906H69.16ZM51.386 61.4844V67.7294L45.5273 64.6069L51.386 61.4844ZM89.5071 68.5761H83.8199V60.6377H89.5071V68.5761Z" fill="#0057FF"/>
</svg>
