<svg width="100" height="100" viewBox="0 0 100 100" fill="none" xmlns="http://www.w3.org/2000/svg">
<path d="M36.9891 41.1875C36.7993 41.1876 36.6113 41.1497 36.4359 41.0759C36.2605 41.0021 36.1011 40.894 35.9668 40.7575C35.8326 40.6211 35.7261 40.4592 35.6535 40.2809C35.5809 40.1027 35.5436 39.9117 35.5437 39.7187C35.5415 37.7718 34.7793 35.9052 33.4244 34.5285C32.0696 33.1517 30.2326 32.3773 28.3165 32.375C27.9332 32.375 27.5655 32.2203 27.2945 31.9448C27.0234 31.6694 26.8711 31.2958 26.8711 30.9062C26.8711 30.5167 27.0234 30.1431 27.2945 29.8677C27.5655 29.5922 27.9332 29.4375 28.3165 29.4375C30.999 29.4408 33.5707 30.5251 35.4675 32.4525C37.3643 34.3798 38.4313 36.993 38.4346 39.7187C38.4347 39.9117 38.3974 40.1027 38.3248 40.2809C38.2522 40.4592 38.1457 40.6211 38.0115 40.7575C37.8772 40.894 37.7178 41.0021 37.5424 41.0759C37.367 41.1497 37.179 41.1876 36.9891 41.1875Z" fill="#0057FF"/>
<path d="M28.3165 80.3962C28.1267 80.3963 27.9387 80.3584 27.7633 80.2846C27.5878 80.2109 27.4284 80.1027 27.2942 79.9663C27.16 79.8299 27.0535 79.6679 26.9809 79.4896C26.9083 79.3114 26.871 79.1204 26.8711 78.9274V30.9062C26.8711 30.5167 27.0234 30.1431 27.2945 29.8677C27.5655 29.5922 27.9332 29.4375 28.3165 29.4375C28.6999 29.4375 29.0675 29.5922 29.3386 29.8677C29.6097 30.1431 29.762 30.5167 29.762 30.9062V78.9274C29.7621 79.1204 29.7248 79.3114 29.6522 79.4896C29.5796 79.6679 29.4731 79.8299 29.3389 79.9663C29.2046 80.1027 29.0452 80.2109 28.8698 80.2846C28.6944 80.3584 28.5064 80.3963 28.3165 80.3962Z" fill="#0057FF"/>
<path d="M74.5717 70.5625H39.8812C38.7316 70.5612 37.6293 70.0965 36.8164 69.2705C36.0034 68.4444 35.5462 67.3244 35.5449 66.1562V7.40625C35.5462 6.23803 36.0034 5.11802 36.8164 4.29197C37.6293 3.46591 38.7316 3.00128 39.8812 3L74.5717 3C75.7214 3.00128 76.8236 3.46591 77.6366 4.29197C78.4495 5.11802 78.9068 6.23803 78.908 7.40625C78.908 7.79578 78.7557 8.16937 78.4847 8.44481C78.2136 8.72025 77.8459 8.875 77.4626 8.875C77.0792 8.875 76.7116 8.72025 76.4405 8.44481C76.1694 8.16937 76.0171 7.79578 76.0171 7.40625C76.0169 7.01679 75.8645 6.64336 75.5935 6.36797C75.3225 6.09259 74.955 5.93776 74.5717 5.9375H39.8812C39.498 5.93776 39.1305 6.09259 38.8594 6.36797C38.5884 6.64336 38.4361 7.01679 38.4358 7.40625V66.1562C38.4361 66.5457 38.5884 66.9191 38.8594 67.1945C39.1305 67.4699 39.498 67.6247 39.8812 67.625H74.5717C74.955 67.6247 75.3225 67.4699 75.5935 67.1945C75.8645 66.9191 76.0169 66.5457 76.0171 66.1562C76.0171 65.7667 76.1694 65.3931 76.4405 65.1176C76.7116 64.8422 77.0792 64.6875 77.4626 64.6875C77.8459 64.6875 78.2136 64.8422 78.4847 65.1176C78.7557 65.3931 78.908 65.7667 78.908 66.1562C78.9068 67.3244 78.4495 68.4444 77.6366 69.2705C76.8236 70.0965 75.7214 70.5612 74.5717 70.5625Z" fill="#0057FF"/>
<path d="M77.463 30.7226C77.2732 30.7227 77.0852 30.6848 76.9097 30.6111C76.7343 30.5373 76.5749 30.4291 76.4407 30.2927C76.3065 30.1563 76.2 29.9943 76.1274 29.8161C76.0548 29.6378 76.0175 29.4468 76.0176 29.2539V7.40625C76.0176 7.01671 76.1699 6.64313 76.4409 6.36769C76.712 6.09224 77.0797 5.9375 77.463 5.9375C77.8464 5.9375 78.214 6.09224 78.4851 6.36769C78.7562 6.64313 78.9085 7.01671 78.9085 7.40625V29.2539C78.9086 29.4468 78.8712 29.6378 78.7986 29.8161C78.726 29.9943 78.6196 30.1563 78.4853 30.2927C78.3511 30.4291 78.1917 30.5373 78.0163 30.6111C77.8409 30.6848 77.6529 30.7227 77.463 30.7226Z" fill="#0057FF"/>
<path d="M77.4614 57.3451C75.928 57.3451 74.4574 56.7261 73.3731 55.6244C72.2888 54.5226 71.6797 53.0283 71.6797 51.4701C71.6797 49.912 72.2888 48.4176 73.3731 47.3159C74.4574 46.2141 75.928 45.5951 77.4614 45.5951C77.8448 45.5951 78.2124 45.7499 78.4835 46.0253C78.7546 46.3007 78.9069 46.6743 78.9069 47.0639C78.9069 47.4534 78.7546 47.827 78.4835 48.1024C78.2124 48.3779 77.8448 48.5326 77.4614 48.5326C76.6947 48.5326 75.9594 48.8421 75.4173 49.393C74.8751 49.9439 74.5706 50.691 74.5706 51.4701C74.5706 52.2492 74.8751 52.9964 75.4173 53.5472C75.9594 54.0981 76.6947 54.4076 77.4614 54.4076C77.8448 54.4076 78.2124 54.5624 78.4835 54.8378C78.7546 55.1132 78.9069 55.4868 78.9069 55.8764C78.9069 56.2659 78.7546 56.6395 78.4835 56.9149C78.2124 57.1904 77.8448 57.3451 77.4614 57.3451Z" fill="#0057FF"/>
<path d="M77.4614 66.1562C75.928 66.1562 74.4574 65.5373 73.3731 64.4355C72.2888 63.3337 71.6797 61.8394 71.6797 60.2812C71.6797 58.7231 72.2888 57.2288 73.3731 56.127C74.4574 55.0252 75.928 54.4062 77.4614 54.4062C77.8448 54.4062 78.2124 54.561 78.4835 54.8364C78.7546 55.1119 78.9069 55.4855 78.9069 55.875C78.9069 56.2645 78.7546 56.6381 78.4835 56.9136C78.2124 57.189 77.8448 57.3437 77.4614 57.3437C76.6947 57.3437 75.9594 57.6532 75.4173 58.2041C74.8751 58.755 74.5706 59.5022 74.5706 60.2812C74.5706 61.0603 74.8751 61.8075 75.4173 62.3584C75.9594 62.9093 76.6947 63.2187 77.4614 63.2187C77.8448 63.2187 78.2124 63.3735 78.4835 63.6489C78.7546 63.9244 78.9069 64.298 78.9069 64.6875C78.9069 65.077 78.7546 65.4506 78.4835 65.7261C78.2124 66.0015 77.8448 66.1562 77.4614 66.1562Z" fill="#0057FF"/>
<path d="M78.9083 57.3424C78.525 57.3424 78.1573 57.1876 77.8862 56.9122C77.6152 56.6367 77.4629 56.2632 77.4629 55.8736C77.4629 55.4841 77.6152 55.1105 77.8862 54.8351C78.1573 54.5596 78.525 54.4049 78.9083 54.4049C79.675 54.4049 80.4103 54.0954 80.9525 53.5445C81.4946 52.9936 81.7992 52.2465 81.7992 51.4674C81.7992 50.6883 81.4946 49.9411 80.9525 49.3903C80.4103 48.8394 79.675 48.5299 78.9083 48.5299C78.525 48.5299 78.1573 48.3751 77.8862 48.0997C77.6152 47.8242 77.4629 47.4507 77.4629 47.0611C77.4629 46.6716 77.6152 46.298 77.8862 46.0226C78.1573 45.7471 78.525 45.5924 78.9083 45.5924C80.4417 45.5924 81.9124 46.2114 82.9966 47.3131C84.0809 48.4149 84.6901 49.9092 84.6901 51.4674C84.6901 53.0255 84.0809 54.5199 82.9966 55.6216C81.9124 56.7234 80.4417 57.3424 78.9083 57.3424Z" fill="#0057FF"/>
<path d="M78.9083 66.1562C78.525 66.1562 78.1573 66.0015 77.8862 65.7261C77.6152 65.4506 77.4629 65.077 77.4629 64.6875C77.4629 64.298 77.6152 63.9244 77.8862 63.6489C78.1573 63.3735 78.525 63.2187 78.9083 63.2187C79.675 63.2187 80.4103 62.9093 80.9525 62.3584C81.4946 61.8075 81.7992 61.0603 81.7992 60.2812C81.7992 59.5022 81.4946 58.755 80.9525 58.2041C80.4103 57.6532 79.675 57.3437 78.9083 57.3437C78.525 57.3437 78.1573 57.189 77.8862 56.9136C77.6152 56.6381 77.4629 56.2645 77.4629 55.875C77.4629 55.4855 77.6152 55.1119 77.8862 54.8364C78.1573 54.561 78.525 54.4062 78.9083 54.4062C80.4417 54.4062 81.9124 55.0252 82.9966 56.127C84.0809 57.2288 84.6901 58.7231 84.6901 60.2812C84.6901 61.8394 84.0809 63.3337 82.9966 64.4355C81.9124 65.5373 80.4417 66.1562 78.9083 66.1562Z" fill="#0057FF"/>
<path d="M78.9085 57.3437H77.463C77.0797 57.3437 76.712 57.189 76.4409 56.9136C76.1699 56.6381 76.0176 56.2645 76.0176 55.875C76.0176 55.4855 76.1699 55.1119 76.4409 54.8364C76.712 54.561 77.0797 54.4062 77.463 54.4062H78.9085C79.2918 54.4062 79.6595 54.561 79.9305 54.8364C80.2016 55.1119 80.3539 55.4855 80.3539 55.875C80.3539 56.2645 80.2016 56.6381 79.9305 56.9136C79.6595 57.189 79.2918 57.3437 78.9085 57.3437Z" fill="#0057FF"/>
<path d="M78.9085 66.1562H77.463C77.0797 66.1562 76.712 66.0015 76.4409 65.7261C76.1699 65.4506 76.0176 65.077 76.0176 64.6875C76.0176 64.298 76.1699 63.9244 76.4409 63.6489C76.712 63.3735 77.0797 63.2188 77.463 63.2188H78.9085C79.2918 63.2188 79.6595 63.3735 79.9305 63.6489C80.2016 63.9244 80.3539 64.298 80.3539 64.6875C80.3539 65.077 80.2016 65.4506 79.9305 65.7261C79.6595 66.0015 79.2918 66.1562 78.9085 66.1562Z" fill="#0057FF"/>
<path d="M77.4614 48.5326C75.928 48.5326 74.4574 47.9136 73.3731 46.8119C72.2888 45.7101 71.6797 44.2158 71.6797 42.6576C71.6797 41.0995 72.2888 39.6051 73.3731 38.5034C74.4574 37.4016 75.928 36.7826 77.4614 36.7826C77.8448 36.7826 78.2124 36.9374 78.4835 37.2128C78.7546 37.4882 78.9069 37.8618 78.9069 38.2514C78.9069 38.6409 78.7546 39.0145 78.4835 39.2899C78.2124 39.5654 77.8448 39.7201 77.4614 39.7201C76.6947 39.7201 75.9594 40.0296 75.4173 40.5805C74.8751 41.1314 74.5706 41.8785 74.5706 42.6576C74.5706 43.4367 74.8751 44.1838 75.4173 44.7347C75.9594 45.2856 76.6947 45.5951 77.4614 45.5951C77.8448 45.5951 78.2124 45.7499 78.4835 46.0253C78.7546 46.3007 78.9069 46.6743 78.9069 47.0639C78.9069 47.4534 78.7546 47.827 78.4835 48.1024C78.2124 48.3779 77.8448 48.5326 77.4614 48.5326Z" fill="#0057FF"/>
<path d="M77.4614 39.7187C75.928 39.7187 74.4574 39.0998 73.3731 37.998C72.2888 36.8962 71.6797 35.4019 71.6797 33.8437C71.6797 32.2856 72.2888 30.7913 73.3731 29.6895C74.4574 28.5877 75.928 27.9688 77.4614 27.9688C77.8448 27.9688 78.2124 28.1235 78.4835 28.3989C78.7546 28.6744 78.9069 29.048 78.9069 29.4375C78.9069 29.827 78.7546 30.2006 78.4835 30.4761C78.2124 30.7515 77.8448 30.9062 77.4614 30.9062C76.6947 30.9062 75.9594 31.2157 75.4173 31.7666C74.8751 32.3175 74.5706 33.0647 74.5706 33.8437C74.5706 34.6228 74.8751 35.37 75.4173 35.9209C75.9594 36.4718 76.6947 36.7812 77.4614 36.7812C77.8448 36.7812 78.2124 36.936 78.4835 37.2114C78.7546 37.4869 78.9069 37.8605 78.9069 38.25C78.9069 38.6395 78.7546 39.0131 78.4835 39.2886C78.2124 39.564 77.8448 39.7187 77.4614 39.7187Z" fill="#0057FF"/>
<path d="M78.9083 48.5299C78.525 48.5299 78.1573 48.3751 77.8862 48.0997C77.6152 47.8242 77.4629 47.4507 77.4629 47.0611C77.4629 46.6716 77.6152 46.298 77.8862 46.0226C78.1573 45.7471 78.525 45.5924 78.9083 45.5924C79.675 45.5924 80.4103 45.2829 80.9525 44.732C81.4946 44.1811 81.7992 43.434 81.7992 42.6549C81.7992 41.8758 81.4946 41.1286 80.9525 40.5778C80.4103 40.0269 79.675 39.7174 78.9083 39.7174C78.525 39.7174 78.1573 39.5626 77.8862 39.2872C77.6152 39.0117 77.4629 38.6382 77.4629 38.2486C77.4629 37.8591 77.6152 37.4855 77.8862 37.2101C78.1573 36.9346 78.525 36.7799 78.9083 36.7799C80.4417 36.7799 81.9124 37.3989 82.9966 38.5006C84.0809 39.6024 84.6901 41.0967 84.6901 42.6549C84.6901 44.213 84.0809 45.7074 82.9966 46.8091C81.9124 47.9109 80.4417 48.5299 78.9083 48.5299Z" fill="#0057FF"/>
<path d="M78.9083 39.7187C78.525 39.7187 78.1573 39.564 77.8862 39.2886C77.6152 39.0131 77.4629 38.6395 77.4629 38.25C77.4629 37.8605 77.6152 37.4869 77.8862 37.2114C78.1573 36.936 78.525 36.7812 78.9083 36.7812C79.675 36.7812 80.4103 36.4718 80.9525 35.9209C81.4946 35.37 81.7992 34.6228 81.7992 33.8437C81.7992 33.0647 81.4946 32.3175 80.9525 31.7666C80.4103 31.2157 79.675 30.9062 78.9083 30.9062C78.525 30.9062 78.1573 30.7515 77.8862 30.4761C77.6152 30.2006 77.4629 29.827 77.4629 29.4375C77.4629 29.048 77.6152 28.6744 77.8862 28.3989C78.1573 28.1235 78.525 27.9688 78.9083 27.9688C80.4417 27.9688 81.9124 28.5877 82.9966 29.6895C84.0809 30.7913 84.6901 32.2856 84.6901 33.8437C84.6901 35.4019 84.0809 36.8962 82.9966 37.998C81.9124 39.0998 80.4417 39.7187 78.9083 39.7187Z" fill="#0057FF"/>
<path d="M78.9085 39.7201H77.463C77.0797 39.7201 76.712 39.5654 76.4409 39.2899C76.1699 39.0145 76.0176 38.6409 76.0176 38.2514C76.0176 37.8618 76.1699 37.4882 76.4409 37.2128C76.712 36.9374 77.0797 36.7826 77.463 36.7826H78.9085C79.2918 36.7826 79.6595 36.9374 79.9305 37.2128C80.2016 37.4882 80.3539 37.8618 80.3539 38.2514C80.3539 38.6409 80.2016 39.0145 79.9305 39.2899C79.6595 39.5654 79.2918 39.7201 78.9085 39.7201Z" fill="#0057FF"/>
<path d="M78.9085 30.9062H77.463C77.0797 30.9062 76.712 30.7515 76.4409 30.4761C76.1699 30.2006 76.0176 29.827 76.0176 29.4375C76.0176 29.048 76.1699 28.6744 76.4409 28.3989C76.712 28.1235 77.0797 27.9688 77.463 27.9688H78.9085C79.2918 27.9688 79.6595 28.1235 79.9305 28.3989C80.2016 28.6744 80.3539 29.048 80.3539 29.4375C80.3539 29.827 80.2016 30.2006 79.9305 30.4761C79.6595 30.7515 79.2918 30.9062 78.9085 30.9062Z" fill="#0057FF"/>
<path d="M78.9085 48.5299H77.463C77.0797 48.5299 76.712 48.3751 76.4409 48.0997C76.1699 47.8242 76.0176 47.4507 76.0176 47.0611C76.0176 46.6716 76.1699 46.298 76.4409 46.0226C76.712 45.7471 77.0797 45.5924 77.463 45.5924H78.9085C79.2918 45.5924 79.6595 45.7471 79.9305 46.0226C80.2016 46.298 80.3539 46.6716 80.3539 47.0611C80.3539 47.4507 80.2016 47.8242 79.9305 48.0997C79.6595 48.3751 79.2918 48.5299 78.9085 48.5299Z" fill="#0057FF"/>
<path d="M55.781 90.1036C55.5015 90.1036 55.228 90.0211 54.9936 89.8663C54.7592 89.7115 54.5741 89.491 54.4605 89.2314C54.347 88.9718 54.31 88.6844 54.3539 88.4039C54.3979 88.1234 54.521 87.8618 54.7082 87.6509L72.0535 68.1097C72.3104 67.8211 72.6696 67.6479 73.0521 67.6282C73.4346 67.6086 73.8092 67.744 74.0935 68.0048C74.3778 68.2655 74.5486 68.6303 74.5684 69.019C74.5882 69.4076 74.4554 69.7884 74.1991 70.0776L56.8538 89.6188C56.7185 89.7716 56.553 89.8937 56.3682 89.9772C56.1834 90.0608 55.9833 90.1038 55.781 90.1036Z" fill="#0057FF"/>
<path d="M58.6705 91.1249C58.509 91.1251 58.3486 91.0975 58.1963 91.0431L24.9512 79.2931C24.772 79.2298 24.6067 79.1313 24.465 79.0031C24.3232 78.8749 24.2077 78.7196 24.1249 78.5461C24.0422 78.3725 23.994 78.1841 23.9829 77.9916C23.9719 77.7991 23.9982 77.6063 24.0605 77.4242C24.1228 77.242 24.2198 77.0741 24.3459 76.9301C24.4721 76.786 24.6249 76.6686 24.7957 76.5846C24.9665 76.5005 25.1519 76.4515 25.3413 76.4403C25.5308 76.429 25.7205 76.4558 25.8998 76.5191L59.1448 88.2691C59.4675 88.3831 59.7399 88.6095 59.9139 88.9081C60.0879 89.2068 60.1522 89.5584 60.0954 89.9007C60.0386 90.2429 59.8643 90.5536 59.6034 90.7777C59.3426 91.0018 59.0121 91.1248 58.6705 91.1249Z" fill="#0057FF"/>
<path d="M16.7529 97C16.5066 96.9998 16.2644 96.9357 16.0494 96.8137C15.8343 96.6917 15.6535 96.5159 15.5241 96.3029C15.3947 96.09 15.321 95.8469 15.31 95.5969C15.299 95.3469 15.3511 95.0982 15.4613 94.8743L24.1339 77.2493C24.2186 77.0763 24.3359 76.922 24.4793 76.7952C24.6228 76.6683 24.7894 76.5715 24.9697 76.5102C25.15 76.4488 25.3404 76.4243 25.5301 76.4379C25.7197 76.4514 25.9049 76.5029 26.075 76.5893C26.245 76.6757 26.3966 76.7953 26.5211 76.9414C26.6456 77.0874 26.7405 77.2569 26.8004 77.4403C26.8603 77.6236 26.8841 77.8172 26.8702 78.0099C26.8564 78.2026 26.8053 78.3906 26.7199 78.5632L18.0473 96.1882C17.9271 96.4324 17.7423 96.6377 17.5137 96.7811C17.285 96.9245 17.0216 97.0003 16.7529 97Z" fill="#0057FF"/>
<path d="M55.7802 96.9998C55.5339 96.9996 55.2918 96.9355 55.0767 96.8135C54.8616 96.6915 54.6808 96.5156 54.5514 96.3027C54.4221 96.0897 54.3484 95.8467 54.3374 95.5967C54.3264 95.3467 54.3785 95.0979 54.4887 94.8741L57.3795 88.9991C57.5515 88.6516 57.8522 88.3876 58.2155 88.2651C58.5788 88.1425 58.9751 88.1714 59.3175 88.3453C59.6599 88.5193 59.9204 88.8241 60.0419 89.193C60.1634 89.5619 60.1359 89.9646 59.9655 90.313L57.0746 96.188C56.9544 96.4321 56.7697 96.6375 56.541 96.7809C56.3124 96.9243 56.0489 97.0001 55.7802 96.9998Z" fill="#0057FF"/>
<path d="M77.463 67.625C77.2732 67.6251 77.0852 67.5872 76.9097 67.5134C76.7343 67.4396 76.5749 67.3315 76.4407 67.1951C76.3065 67.0587 76.2 66.8967 76.1274 66.7184C76.0548 66.5402 76.0175 66.3492 76.0176 66.1562V64.6875C76.0176 64.298 76.1699 63.9244 76.4409 63.6489C76.712 63.3735 77.0797 63.2188 77.463 63.2188C77.8464 63.2188 78.214 63.3735 78.4851 63.6489C78.7562 63.9244 78.9085 64.298 78.9085 64.6875V66.1562C78.9086 66.3492 78.8712 66.5402 78.7986 66.7184C78.726 66.8967 78.6196 67.0587 78.4853 67.1951C78.3511 67.3315 78.1917 67.4396 78.0163 67.5134C77.8409 67.5872 77.6529 67.6251 77.463 67.625Z" fill="#0057FF"/>
<path d="M28.3451 89.6562C28.1553 89.6572 27.9671 89.6201 27.7914 89.5472C27.6157 89.4742 27.4558 89.3668 27.3209 89.2311C27.1861 89.0954 27.0788 88.934 27.0053 88.7562C26.9318 88.5783 26.8935 88.3875 26.8926 88.1947C26.8917 88.0018 26.9281 87.8106 26.9999 87.6321C27.0717 87.4535 27.1774 87.2911 27.311 87.154C27.4445 87.017 27.6034 86.908 27.7784 86.8333C27.9534 86.7586 28.1412 86.7197 28.331 86.7188H28.3451C28.7284 86.7188 29.0961 86.8735 29.3672 87.1489C29.6382 87.4244 29.7905 87.798 29.7905 88.1875C29.7905 88.577 29.6382 88.9506 29.3672 89.2261C29.0961 89.5015 28.7284 89.6562 28.3451 89.6562Z" fill="#0057FF"/>
<path d="M57.225 66.1562C56.3673 66.1562 55.529 65.8978 54.8159 65.4137C54.1028 64.9295 53.547 64.2413 53.2188 63.4362C52.8906 62.6311 52.8047 61.7451 52.972 60.8904C53.1393 60.0357 53.5523 59.2505 54.1588 58.6343C54.7652 58.0181 55.5379 57.5984 56.379 57.4284C57.2202 57.2584 58.0921 57.3457 58.8844 57.6792C59.6768 58.0127 60.354 58.5774 60.8305 59.302C61.307 60.0266 61.5613 60.8785 61.5613 61.75C61.56 62.9182 61.1028 64.0382 60.2898 64.8643C59.4769 65.6903 58.3747 66.155 57.225 66.1562ZM57.225 60.2812C56.9391 60.2812 56.6596 60.3674 56.4219 60.5288C56.1842 60.6902 55.999 60.9196 55.8896 61.1879C55.7802 61.4563 55.7515 61.7516 55.8073 62.0365C55.8631 62.3214 56.0008 62.5832 56.2029 62.7886C56.4051 62.994 56.6626 63.1339 56.943 63.1905C57.2234 63.2472 57.514 63.2181 57.7781 63.1069C58.0422 62.9958 58.268 62.8075 58.4268 62.566C58.5856 62.3245 58.6704 62.0405 58.6704 61.75C58.6702 61.3605 58.5178 60.9871 58.2468 60.7117C57.9758 60.4363 57.6083 60.2815 57.225 60.2812Z" fill="#0057FF"/>
<path d="M52.9174 11.8125C52.534 11.8144 52.1656 11.6615 51.8932 11.3874C51.6208 11.1133 51.4667 10.7405 51.4649 10.3509C51.463 9.96138 51.6135 9.58704 51.8832 9.31025C52.153 9.03347 52.5199 8.8769 52.9032 8.875H52.9174C53.3007 8.875 53.6684 9.02974 53.9394 9.30519C54.2105 9.58063 54.3628 9.95421 54.3628 10.3437C54.3628 10.7333 54.2105 11.1069 53.9394 11.3823C53.6684 11.6578 53.3007 11.8125 52.9174 11.8125Z" fill="#0057FF"/>
<path d="M61.563 11.8125H57.2267C56.8433 11.8125 56.4757 11.6578 56.2046 11.3823C55.9335 11.1069 55.7812 10.7333 55.7812 10.3437C55.7812 9.95421 55.9335 9.58063 56.2046 9.30519C56.4757 9.02974 56.8433 8.875 57.2267 8.875H61.563C61.9464 8.875 62.314 9.02974 62.5851 9.30519C62.8561 9.58063 63.0084 9.95421 63.0084 10.3437C63.0084 10.7333 62.8561 11.1069 62.5851 11.3823C62.314 11.6578 61.9464 11.8125 61.563 11.8125Z" fill="#0057FF"/>
<path d="M67.4374 48.5312H47.2013C47.0114 48.5313 46.8234 48.4934 46.648 48.4197C46.4726 48.3459 46.3132 48.2377 46.179 48.1013C46.0447 47.9649 45.9383 47.8029 45.8657 47.6247C45.7931 47.4464 45.7558 47.2554 45.7559 47.0625V29.4375C45.7558 29.2446 45.7931 29.0535 45.8657 28.8753C45.9383 28.6971 46.0447 28.5351 46.179 28.3987C46.3132 28.2623 46.4726 28.1541 46.648 28.0803C46.8234 28.0066 47.0114 27.9686 47.2013 27.9688H67.4374C67.6273 27.9686 67.8153 28.0066 67.9907 28.0803C68.1661 28.1541 68.3255 28.2623 68.4597 28.3987C68.594 28.5351 68.7004 28.6971 68.773 28.8753C68.8456 29.0535 68.883 29.2446 68.8828 29.4375V47.0625C68.883 47.2554 68.8456 47.4464 68.773 47.6247C68.7004 47.8029 68.594 47.9649 68.4597 48.1013C68.3255 48.2377 68.1661 48.3459 67.9907 48.4197C67.8153 48.4934 67.6273 48.5313 67.4374 48.5312ZM48.6467 45.5937H65.992V30.9062H48.6467V45.5937Z" fill="#0057FF"/>
<path d="M63.1007 48.5312H51.5372C51.3474 48.5313 51.1594 48.4934 50.984 48.4197C50.8085 48.3459 50.6492 48.2377 50.5149 48.1013C50.3807 47.9649 50.2742 47.8029 50.2016 47.6247C50.129 47.4464 50.0917 47.2554 50.0918 47.0625V33.8437C50.0917 33.6508 50.129 33.4598 50.2016 33.2816C50.2742 33.1033 50.3807 32.9413 50.5149 32.8049C50.6492 32.6685 50.8085 32.5604 50.984 32.4866C51.1594 32.4128 51.3474 32.3749 51.5372 32.375H63.1007C63.2906 32.3749 63.4786 32.4128 63.654 32.4866C63.8294 32.5603 63.9888 32.6685 64.1231 32.8049C64.2573 32.9413 64.3638 33.1033 64.4364 33.2815C64.509 33.4598 64.5463 33.6508 64.5462 33.8437V47.0625C64.5463 47.2554 64.509 47.4464 64.4364 47.6247C64.3638 47.8029 64.2573 47.9649 64.1231 48.1013C63.9888 48.2377 63.8294 48.3459 63.654 48.4197C63.4786 48.4934 63.2906 48.5314 63.1007 48.5312ZM52.9827 45.5937H61.6553V35.3125H52.9827V45.5937Z" fill="#0057FF"/>
<path d="M63.1007 44.125H51.5372C51.1539 44.125 50.7862 43.9703 50.5152 43.6948C50.2441 43.4194 50.0918 43.0458 50.0918 42.6562C50.0918 42.2667 50.2441 41.8931 50.5152 41.6177C50.7862 41.3422 51.1539 41.1875 51.5372 41.1875H63.1007C63.4841 41.1875 63.8517 41.3422 64.1228 41.6177C64.3939 41.8931 64.5462 42.2667 64.5462 42.6562C64.5462 43.0458 64.3939 43.4194 64.1228 43.6948C63.8517 43.9703 63.4841 44.125 63.1007 44.125Z" fill="#0057FF"/>
<path d="M68.883 30.9062H45.756C45.3726 30.9062 45.005 30.7515 44.7339 30.4761C44.4628 30.2006 44.3105 29.827 44.3105 29.4375C44.3105 29.048 44.4628 28.6744 44.7339 28.3989C45.005 28.1235 45.3726 27.9688 45.756 27.9688H68.883C69.2663 27.9688 69.634 28.1235 69.905 28.3989C70.1761 28.6744 70.3284 29.048 70.3284 29.4375C70.3284 29.827 70.1761 30.2006 69.905 30.4761C69.634 30.7515 69.2663 30.9062 68.883 30.9062Z" fill="#0057FF"/>
<path d="M63.1007 39.7187H51.5372C51.1539 39.7187 50.7862 39.564 50.5152 39.2886C50.2441 39.0131 50.0918 38.6395 50.0918 38.25C50.0918 37.8605 50.2441 37.4869 50.5152 37.2114C50.7862 36.936 51.1539 36.7812 51.5372 36.7812H63.1007C63.4841 36.7812 63.8517 36.936 64.1228 37.2114C64.3939 37.4869 64.5462 37.8605 64.5462 38.25C64.5462 38.6395 64.3939 39.0131 64.1228 39.2886C63.8517 39.564 63.4841 39.7187 63.1007 39.7187Z" fill="#0057FF"/>
</svg>
