<svg width="100" height="100" viewBox="0 0 100 100" fill="none" xmlns="http://www.w3.org/2000/svg">
<path d="M93.0879 22.9608H6.61352C5.76075 22.9608 5.06934 22.2694 5.06934 21.4166V13.5442C5.06934 12.6914 5.76075 12 6.61352 12H93.0879C93.9407 12 94.6321 12.6914 94.6321 13.5442V21.4166C94.6321 22.2694 93.9407 22.9608 93.0879 22.9608ZM8.15771 19.8725H91.5438V15.0884H8.15771V19.8725Z" fill="#0057FF"/>
<path d="M90.4961 72.2082H9.20923C8.35645 72.2082 7.66504 71.5168 7.66504 70.664V21.4165C7.66504 20.5637 8.35645 19.8723 9.20923 19.8723H90.4961C91.3489 19.8723 92.0403 20.5637 92.0403 21.4165V70.664C92.0403 71.5168 91.3487 72.2082 90.4961 72.2082ZM10.7534 69.1199H88.952V22.9607H10.7534V69.1199Z" fill="#0057FF"/>
<path d="M49.8508 83.2863C48.998 83.2863 48.3066 82.5949 48.3066 81.7421V70.6639C48.3066 69.8111 48.998 69.1197 49.8508 69.1197C50.7036 69.1197 51.395 69.8111 51.395 70.6639V81.7421C51.395 82.5949 50.7036 83.2863 49.8508 83.2863Z" fill="#0057FF"/>
<path d="M49.8511 95.0001C45.7702 95.0001 42.4502 91.6801 42.4502 87.599C42.4502 83.5181 45.7702 80.1981 49.8511 80.1981C53.932 80.1981 57.252 83.5181 57.252 87.599C57.252 91.6801 53.932 95.0001 49.8511 95.0001ZM49.8511 83.2865C47.473 83.2865 45.5386 85.2209 45.5386 87.599C45.5386 89.9772 47.473 91.9117 49.8511 91.9117C52.2289 91.9117 54.1636 89.9772 54.1636 87.599C54.1636 85.2211 52.2289 83.2865 49.8511 83.2865Z" fill="#0057FF"/>
<path d="M20.4384 60.3416C19.1202 60.3416 18.3247 59.8227 17.8895 59.3875C16.3739 57.8719 16.6543 55.2056 18.7231 51.4625C20.4391 48.3577 23.2418 44.7903 26.6149 41.4172C32.4948 35.5373 38.5482 31.7381 42.0367 31.7381C43.3548 31.7381 44.1503 32.2569 44.5854 32.692C46.101 34.2078 45.8205 36.874 43.7519 40.6171C42.0359 43.7219 39.2332 47.2894 35.8601 50.6624C29.9803 56.5423 23.9269 60.3416 20.4384 60.3416ZM20.0743 57.2015C20.1037 57.2148 20.2079 57.2534 20.4384 57.2534C22.6019 57.2534 27.9769 54.1782 33.6763 48.4788C36.7226 45.4325 39.2794 42.2192 40.8757 39.431C42.588 36.4401 42.52 35.104 42.4007 34.8784C42.371 34.8648 42.2668 34.8264 42.0367 34.8264C39.8731 34.8264 34.4982 37.9017 28.7988 43.6009C25.7525 46.6474 23.1957 49.8604 21.5994 52.6486C19.8865 55.6403 19.955 56.9762 20.0743 57.2015Z" fill="#0057FF"/>
<path d="M42.0365 60.3418C38.548 60.3418 32.4945 56.5423 26.6149 50.6624C23.2418 47.2894 20.4391 43.7219 18.7231 40.6171C16.6543 36.874 16.3738 34.2076 17.8896 32.692C18.3247 32.2567 19.1202 31.7381 20.4383 31.7381C23.9268 31.7381 29.9802 35.5375 35.8601 41.4174C39.2332 44.7905 42.0359 48.3579 43.7521 51.4627C45.8209 55.2058 46.1011 57.872 44.5855 59.3879C44.1501 59.8229 43.3546 60.3418 42.0365 60.3418ZM20.0741 34.8785C19.955 35.1044 19.887 36.4403 21.5992 39.431C23.1955 42.2192 25.7522 45.4325 28.7985 48.4788C34.4977 54.1782 39.8727 57.2534 42.0365 57.2534C42.2665 57.2534 42.371 57.215 42.4007 57.2013C42.52 56.9758 42.5881 55.6399 40.8756 52.6488C39.2793 49.8608 36.7225 46.6476 33.6762 43.6013C27.9768 37.9019 22.6019 34.8266 20.4381 34.8266C20.2084 34.8266 20.104 34.8648 20.0741 34.8785Z" fill="#0057FF"/>
<path d="M81.5724 36.7573H56.2219C55.3691 36.7573 54.6777 36.0659 54.6777 35.2131C54.6777 34.3603 55.3691 33.6689 56.2219 33.6689H81.5724C82.4252 33.6689 83.1166 34.3603 83.1166 35.2131C83.1166 36.0659 82.4252 36.7573 81.5724 36.7573Z" fill="#0057FF"/>
<path d="M81.5724 58.4118H56.2219C55.3691 58.4118 54.6777 57.7204 54.6777 56.8676C54.6777 56.0148 55.3691 55.3234 56.2219 55.3234H81.5724C82.4252 55.3234 83.1166 56.0148 83.1166 56.8676C83.1166 57.7204 82.4252 58.4118 81.5724 58.4118Z" fill="#0057FF"/>
<path d="M81.5724 47.5846H56.2219C55.3691 47.5846 54.6777 46.8932 54.6777 46.0404C54.6777 45.1876 55.3691 44.4962 56.2219 44.4962H81.5724C82.4252 44.4962 83.1166 45.1876 83.1166 46.0404C83.1166 46.8932 82.4252 47.5846 81.5724 47.5846Z" fill="#0057FF"/>
</svg>
