<svg width="100" height="100" viewBox="0 0 100 100" fill="none" xmlns="http://www.w3.org/2000/svg">
<path d="M15.8872 81.976H47.5292C49.1929 84.7199 51.4149 87.0834 54.051 88.9132C56.687 90.7429 59.6783 91.9981 62.8308 92.5973C65.9833 93.1965 69.2266 93.1263 72.3502 92.3913C75.4738 91.6562 78.4079 90.2728 80.9624 88.3306C83.5168 86.3885 85.6344 83.9311 87.1779 81.1177C88.7213 78.3044 89.6561 75.1981 89.9215 72.0002C90.187 68.8024 89.7772 65.5844 88.7188 62.5552C87.6604 59.5259 85.9769 56.7529 83.7777 54.4162V18.8875C83.7761 17.3266 83.1553 15.8301 82.0516 14.7263C80.9479 13.6226 79.4514 13.0017 77.8905 13H15.8872C14.3263 13.0017 12.8298 13.6226 11.7261 14.7263C10.6224 15.8301 10.0016 17.3266 10 18.8875V76.0889C10.0017 77.6498 10.6225 79.1462 11.7262 80.2498C12.8299 81.3535 14.3264 81.9743 15.8872 81.976ZM15.8872 78.7764C15.1747 78.7756 14.4916 78.4922 13.9878 77.9883C13.484 77.4845 13.2005 76.8015 13.1997 76.089V33.9769H80.578V51.5847C76.5494 48.6497 71.6731 47.1095 66.6894 47.1981C61.7058 47.2866 56.8873 48.9991 52.9656 52.0755C49.0438 55.1519 46.2332 59.424 44.9606 64.2431C43.6879 69.0622 44.0227 74.1649 45.9142 78.7764H15.8872ZM65.5014 50.6476V58.7272C63.1798 58.6838 60.9356 58.5469 58.8497 58.3267C60.4505 54.3297 62.8235 51.4742 65.5014 50.6476ZM65.5014 61.9273V68.4997H56.7659C56.866 66.1113 57.2222 63.7405 57.8282 61.428C60.2245 61.7067 62.8202 61.8782 65.5014 61.9273ZM68.7011 61.9273C71.3821 61.8782 73.9774 61.7067 76.3735 61.4281C76.9795 63.7405 77.3356 66.1113 77.4358 68.4997H68.7011L68.7011 61.9273ZM68.7011 58.7272V50.6476C71.3787 51.4743 73.7514 54.3299 75.3522 58.3268C73.2665 58.5469 71.0225 58.6838 68.7011 58.7272ZM55.5599 57.8891C54.3567 57.6922 53.2391 57.4638 52.2257 57.2069C53.9372 55.2331 56.0221 53.6173 58.3605 52.4524C57.19 54.1324 56.2482 55.9607 55.5599 57.8891ZM50.2134 59.9691C51.6592 60.3887 53.1283 60.7231 54.6132 60.9706C54.0049 63.4375 53.6528 65.9605 53.5623 68.4997H47.472C47.7134 65.4824 48.6518 62.5622 50.2134 59.9691ZM53.5623 71.6993C53.6527 74.2385 54.0049 76.7615 54.6132 79.2284C53.1283 79.4759 51.6592 79.8103 50.2134 80.2299C48.6518 77.6368 47.7133 74.7167 47.4719 71.6993H53.5623ZM56.7659 71.6993H65.5014V78.2718C62.8202 78.3208 60.2245 78.4923 57.8282 78.771C57.2222 76.4585 56.866 74.0877 56.7659 71.6993ZM65.5014 81.4718V89.5514C62.8235 88.7248 60.4505 85.8693 58.8497 81.8723C60.9357 81.6521 63.1798 81.5152 65.5014 81.4718ZM68.7011 89.5514V81.4718C71.0225 81.5152 73.2664 81.6521 75.3522 81.8722C73.7514 85.8691 71.3787 88.7247 68.7011 89.5514ZM68.7011 78.2718V71.6993H77.4358C77.3356 74.0877 76.9795 76.4585 76.3735 78.7709C73.9775 78.4923 71.3821 78.3208 68.7011 78.2718ZM80.6394 71.6993H86.7297C86.4884 74.7167 85.55 77.6368 83.9884 80.2299C82.5427 79.8103 81.0735 79.4759 79.5886 79.2284C80.1968 76.7615 80.5489 74.2384 80.6394 71.6993ZM80.6394 68.4997C80.5489 65.9606 80.1968 63.4375 79.5886 60.9706C81.0703 60.7236 82.5363 60.3901 83.9791 59.9718C85.5433 62.5629 86.4825 65.4827 86.7224 68.4997H80.6394ZM78.6418 57.8891C77.9543 55.9633 77.0141 54.1373 75.8459 52.459C77.7643 53.4066 79.5156 54.6602 81.0312 56.1705C81.3636 56.5031 81.6666 56.8565 81.9721 57.208C80.9596 57.4645 79.8434 57.6925 78.6418 57.8891ZM52.2257 82.9921C53.2392 82.7352 54.3567 82.5068 55.5599 82.3099C56.2482 84.2383 57.19 86.0666 58.3605 87.7466C56.0221 86.5817 53.9372 84.9659 52.2257 82.9921ZM75.841 87.7471C77.0116 86.0669 77.9534 84.2384 78.6418 82.3099C79.8452 82.5068 80.9628 82.7352 81.9765 82.9921C80.2649 84.9662 78.1797 86.5822 75.841 87.7471ZM15.8872 16.1996H77.8905C78.6031 16.2005 79.2862 16.4839 79.79 16.9878C80.2939 17.4917 80.5773 18.1749 80.578 18.8875V30.7774H13.1997V18.8875C13.2004 18.1749 13.4838 17.4917 13.9877 16.9878C14.4915 16.4839 15.1746 16.2005 15.8872 16.1996ZM23.7866 27.8196C24.6787 27.8196 25.5508 27.5551 26.2926 27.0595C27.0344 26.5639 27.6126 25.8595 27.954 25.0353C28.2954 24.2111 28.3848 23.3042 28.2108 22.4292C28.0368 21.5543 27.6072 20.7506 26.9764 20.1197C26.3456 19.4889 25.5419 19.0593 24.6669 18.8852C23.792 18.7111 22.885 18.8004 22.0608 19.1418C21.2366 19.4831 20.5321 20.0612 20.0364 20.8029C19.5408 21.5447 19.2762 22.4167 19.2761 23.3088C19.2775 24.5047 19.7531 25.6512 20.5987 26.4968C21.4443 27.3424 22.5907 27.8181 23.7866 27.8196ZM23.7866 21.4651C24.1513 21.4651 24.5079 21.5732 24.8111 21.7758C25.1144 21.9784 25.3508 22.2664 25.4904 22.6033C25.63 22.9403 25.6665 23.311 25.5953 23.6687C25.5242 24.0264 25.3486 24.355 25.0907 24.6129C24.8328 24.8708 24.5042 25.0464 24.1465 25.1175C23.7888 25.1887 23.418 25.1521 23.081 25.0126C22.7441 24.873 22.4561 24.6366 22.2535 24.3333C22.0509 24.0301 21.9428 23.6735 21.9428 23.3088C21.9435 22.82 22.138 22.3514 22.4836 22.0058C22.8292 21.6602 23.2978 21.4658 23.7866 21.4651ZM52.2314 27.8196C53.1235 27.8196 53.9956 27.5551 54.7374 27.0595C55.4791 26.5639 56.0573 25.8595 56.3987 25.0353C56.7402 24.2111 56.8295 23.3042 56.6555 22.4292C56.4815 21.5543 56.052 20.7506 55.4212 20.1197C54.7904 19.4889 53.9867 19.0593 53.1117 18.8852C52.2367 18.7111 51.3298 18.8004 50.5056 19.1418C49.6813 19.4831 48.9769 20.0612 48.4812 20.8029C47.9855 21.5447 47.7209 22.4167 47.7209 23.3088C47.7222 24.5047 48.1979 25.6512 49.0434 26.4968C49.889 27.3424 51.0355 27.8181 52.2314 27.8196ZM52.2314 21.4651C52.5961 21.4651 52.9526 21.5732 53.2559 21.7758C53.5592 21.9784 53.7955 22.2664 53.9351 22.6033C54.0747 22.9402 54.1112 23.311 54.0401 23.6687C53.969 24.0264 53.7933 24.355 53.5354 24.6129C53.2775 24.8708 52.9489 25.0464 52.5912 25.1175C52.2335 25.1887 51.8627 25.1521 51.5258 25.0126C51.1888 24.873 50.9009 24.6366 50.6983 24.3333C50.4957 24.0301 50.3876 23.6735 50.3876 23.3088C50.3882 22.82 50.5827 22.3515 50.9283 22.0058C51.274 21.6602 51.7426 21.4658 52.2314 21.4651ZM38.009 27.8196C38.9011 27.8196 39.7732 27.5551 40.515 27.0595C41.2568 26.5639 41.8349 25.8595 42.1764 25.0353C42.5178 24.2111 42.6072 23.3042 42.4332 22.4292C42.2591 21.5543 41.8296 20.7506 41.1988 20.1197C40.568 19.4889 39.7643 19.0593 38.8893 18.8852C38.0144 18.7111 37.1074 18.8004 36.2832 19.1418C35.459 19.4831 34.7545 20.0612 34.2588 20.8029C33.7631 21.5447 33.4986 22.4167 33.4985 23.3088C33.4999 24.5047 33.9755 25.6512 34.8211 26.4968C35.6666 27.3424 36.8131 27.8181 38.009 27.8196ZM38.009 21.4651C38.3737 21.4651 38.7302 21.5732 39.0335 21.7758C39.3368 21.9784 39.5732 22.2664 39.7127 22.6033C39.8523 22.9402 39.8889 23.311 39.8177 23.6687C39.7466 24.0264 39.571 24.355 39.3131 24.6129C39.0552 24.8708 38.7266 25.0464 38.3689 25.1175C38.0111 25.1887 37.6404 25.1521 37.3034 25.0126C36.9665 24.873 36.6785 24.6366 36.4759 24.3333C36.2733 24.0301 36.1652 23.6735 36.1652 23.3088C36.1659 22.82 36.3603 22.3515 36.706 22.0058C37.0516 21.6602 37.5202 21.4658 38.009 21.4651Z" fill="#0057FF"/>
</svg>
