<svg width="62" height="62" viewBox="0 0 62 62" fill="none" xmlns="http://www.w3.org/2000/svg">
<circle cx="31" cy="31" r="30.5" fill="white" stroke="#7A7A7A"/>
<g clip-path="url(#clip0_2330_535)">
<path d="M31 21C28.2863 21 27.945 21.0125 26.8787 21.06C25.8125 21.11 25.0862 21.2775 24.45 21.525C23.7826 21.776 23.1781 22.1698 22.6788 22.6788C22.1701 23.1784 21.7764 23.7828 21.525 24.45C21.2775 25.085 21.1088 25.8125 21.06 26.875C21.0125 27.9437 21 28.2838 21 31.0013C21 33.7163 21.0125 34.0563 21.06 35.1225C21.11 36.1875 21.2775 36.9137 21.525 37.55C21.7812 38.2075 22.1225 38.765 22.6788 39.3212C23.2338 39.8775 23.7912 40.22 24.4488 40.475C25.0863 40.7225 25.8113 40.8912 26.8763 40.94C27.9438 40.9875 28.2838 41 31 41C33.7163 41 34.055 40.9875 35.1225 40.94C36.1863 40.89 36.915 40.7225 37.5513 40.475C38.2182 40.2239 38.8223 39.8301 39.3212 39.3212C39.8775 38.765 40.2188 38.2075 40.475 37.55C40.7213 36.9137 40.89 36.1875 40.94 35.1225C40.9875 34.0563 41 33.7163 41 31C41 28.2838 40.9875 27.9438 40.94 26.8763C40.89 25.8125 40.7213 25.085 40.475 24.45C40.2237 23.7828 39.8299 23.1783 39.3212 22.6788C38.822 22.1696 38.2175 21.7758 37.55 21.525C36.9125 21.2775 36.185 21.1088 35.1213 21.06C34.0538 21.0125 33.715 21 30.9975 21H31.0013H31ZM30.1038 22.8025H31.0013C33.6713 22.8025 33.9875 22.8113 35.0413 22.86C36.0162 22.9038 36.5462 23.0675 36.8988 23.2038C37.365 23.385 37.6987 23.6025 38.0487 23.9525C38.3988 24.3025 38.615 24.635 38.7963 25.1025C38.9338 25.4538 39.0963 25.9838 39.14 26.9588C39.1887 28.0125 39.1987 28.3288 39.1987 30.9975C39.1987 33.6663 39.1887 33.9837 39.14 35.0375C39.0963 36.0125 38.9325 36.5413 38.7963 36.8938C38.6359 37.3279 38.38 37.7205 38.0475 38.0425C37.6975 38.3925 37.365 38.6088 36.8975 38.79C36.5475 38.9275 36.0175 39.09 35.0413 39.135C33.9875 39.1825 33.6713 39.1938 31.0013 39.1938C28.3313 39.1938 28.0138 39.1825 26.96 39.135C25.985 39.09 25.4563 38.9275 25.1038 38.79C24.6694 38.6299 24.2764 38.3745 23.9537 38.0425C23.6209 37.72 23.3647 37.3271 23.2038 36.8925C23.0675 36.5412 22.9038 36.0113 22.86 35.0363C22.8125 33.9825 22.8025 33.6663 22.8025 30.995C22.8025 28.325 22.8125 28.01 22.86 26.9562C22.905 25.9812 23.0675 25.4513 23.205 25.0988C23.3863 24.6325 23.6037 24.2987 23.9537 23.9488C24.3037 23.5987 24.6363 23.3825 25.1038 23.2013C25.4563 23.0638 25.985 22.9013 26.96 22.8563C27.8825 22.8138 28.24 22.8013 30.1038 22.8V22.8025ZM36.3387 24.4625C36.1812 24.4625 36.0251 24.4935 35.8795 24.5538C35.7339 24.6142 35.6017 24.7025 35.4902 24.814C35.3788 24.9254 35.2904 25.0577 35.2301 25.2033C35.1698 25.3489 35.1388 25.5049 35.1388 25.6625C35.1388 25.8201 35.1698 25.9761 35.2301 26.1217C35.2904 26.2673 35.3788 26.3996 35.4902 26.511C35.6017 26.6225 35.7339 26.7108 35.8795 26.7712C36.0251 26.8315 36.1812 26.8625 36.3387 26.8625C36.657 26.8625 36.9622 26.7361 37.1873 26.511C37.4123 26.286 37.5387 25.9808 37.5387 25.6625C37.5387 25.3442 37.4123 25.039 37.1873 24.814C36.9622 24.5889 36.657 24.4625 36.3387 24.4625ZM31.0013 25.865C30.3201 25.8544 29.6436 25.9794 29.0112 26.2327C28.3788 26.486 27.8031 26.8626 27.3177 27.3405C26.8322 27.8185 26.4467 28.3882 26.1836 29.0166C25.9204 29.6449 25.7849 30.3194 25.7849 31.0006C25.7849 31.6819 25.9204 32.3563 26.1836 32.9847C26.4467 33.613 26.8322 34.1828 27.3177 34.6607C27.8031 35.1387 28.3788 35.5153 29.0112 35.7686C29.6436 36.0219 30.3201 36.1469 31.0013 36.1363C32.3494 36.1152 33.6353 35.5649 34.5812 34.6041C35.5272 33.6432 36.0574 32.349 36.0574 31.0006C36.0574 29.6523 35.5272 28.358 34.5812 27.3972C33.6353 26.4364 32.3494 25.886 31.0013 25.865ZM31.0013 27.6663C31.8854 27.6663 32.7334 28.0175 33.3586 28.6427C33.9838 29.2679 34.335 30.1158 34.335 31C34.335 31.8842 33.9838 32.7321 33.3586 33.3573C32.7334 33.9825 31.8854 34.3337 31.0013 34.3337C30.1171 34.3337 29.2691 33.9825 28.6439 33.3573C28.0187 32.7321 27.6675 31.8842 27.6675 31C27.6675 30.1158 28.0187 29.2679 28.6439 28.6427C29.2691 28.0175 30.1171 27.6663 31.0013 27.6663Z" fill="#1A1917"/>
</g>
<defs>
<clipPath id="clip0_2330_535">
<rect width="20" height="20" fill="white" transform="translate(21 21)"/>
</clipPath>
</defs>
</svg>
