<svg width="189" height="34" viewBox="0 0 189 34" fill="#FAFAFA" xmlns="http://www.w3.org/2000/svg">
<path fill-rule="evenodd" clip-rule="evenodd" d="M165.011 31.3903C167.102 32.7848 169.816 33.482 173.15 33.482C176.606 33.482 179.471 32.709 181.744 31.163C184.048 29.5866 185.458 27.3433 185.973 24.4331C186.095 23.7359 186.155 23.0841 186.155 22.4778C186.186 21.8715 186.14 21.3259 186.019 20.8408C185.898 20.3255 185.746 19.8556 185.564 19.4312C185.413 18.9765 185.17 18.5672 184.837 18.2034C184.533 17.8094 184.23 17.4607 183.927 17.1576C183.654 16.8544 183.275 16.5665 182.79 16.2936C182.336 15.9905 181.926 15.748 181.563 15.5661C181.229 15.3539 180.79 15.1417 180.244 14.9295C179.698 14.6869 179.228 14.5051 178.834 14.3838C178.47 14.2322 178.001 14.0503 177.425 13.8381C175.515 13.1409 174.166 12.5194 173.378 11.9738C172.62 11.3978 172.332 10.6703 172.514 9.79113C172.665 9.09389 173.059 8.51791 173.696 8.06319C174.363 7.60847 175.242 7.38111 176.333 7.38111C178.668 7.38111 180.395 8.56338 181.517 10.9279L187.883 7.563C187.065 5.25908 185.685 3.48567 183.745 2.24277C181.835 0.999869 179.577 0.378418 176.97 0.378418C174.029 0.378418 171.437 1.13629 169.194 2.65202C166.951 4.16775 165.587 6.41104 165.102 9.38188C164.617 12.2011 165.102 14.399 166.557 15.9753C168.042 17.5214 170.285 18.7946 173.287 19.795C175.318 20.4922 176.727 21.1137 177.516 21.6593C178.334 22.1747 178.652 22.8871 178.47 23.7965C178.137 25.5851 176.576 26.4794 173.787 26.4794C170.513 26.4794 168.482 25.0546 167.694 22.205L161.055 25.6154C161.631 28.0406 162.949 29.9655 165.011 31.3903ZM163.08 1.01489H155.804L150.211 32.8453H157.486L163.08 1.01489ZM137.777 25.8426H149.145L147.917 32.8453H129.273L130.501 25.8426L134.866 1.01489H142.142L137.777 25.8426ZM130.306 1.01489H123.031L117.438 32.8453H124.713L130.306 1.01489ZM74.3032 32.8453L73.6666 27.8434H61.8439L59.2974 32.8453H51.5627H51.3398H44.1962L40.0583 22.3867H36.1022L34.2833 32.8453H27.0078L32.6009 1.01489H44.8783C47.9098 1.01489 50.3804 2.16685 52.2903 4.47077C54.2001 6.74437 54.8822 9.38174 54.3365 12.3829C53.9424 14.5049 53.0936 16.3541 51.7901 17.9305C50.4865 19.4765 48.8647 20.6285 46.9246 21.3864L51.4647 32.6032L67.7552 1.01489H77.0315L82.2608 32.8453H74.3032ZM65.2543 21.0226H72.8481L71.3475 8.9725L65.2543 21.0226ZM47.061 11.9282C46.8488 13.1104 46.3334 14.0957 45.5149 14.8839C44.7267 15.6417 43.787 16.0207 42.6957 16.0207H37.239L38.6941 7.8357H43.696C44.9086 7.8357 45.8181 8.22979 46.4244 9.01797C47.061 9.77584 47.2732 10.7459 47.061 11.9282ZM18.1873 1.01489C21.4613 1.01489 24.0077 2.10622 25.8266 4.28888C27.6455 6.44122 28.3276 9.13923 27.8729 12.3829C27.4181 15.5053 26.0237 18.0366 23.6894 19.9767C21.3855 21.8865 18.4298 22.8415 14.8224 22.8415H10.1388L8.36537 32.8453H1.08984L6.6829 1.01489H18.1873ZM20.5973 11.9282C20.8399 10.6853 20.658 9.70005 20.0517 8.9725C19.4757 8.21463 18.4602 7.8357 17.005 7.8357H12.7762L11.321 16.0207H15.5499C16.9141 16.0207 18.0357 15.6569 18.9149 14.9293C19.794 14.2018 20.3548 13.2014 20.5973 11.9282ZM92.2043 31.6833C88.486 29.8641 85.4618 26.626 84.0131 22.4011L84.0121 22.4028C82.5634 18.1778 82.9645 13.7655 84.7838 10.0472C86.603 6.32889 89.841 3.30468 94.066 1.85594C98.291 0.407196 102.703 0.808198 106.422 2.62759C110.14 4.4481 113.165 7.68613 114.613 11.9099C114.751 12.3123 114.749 12.5294 114.749 12.5294L108.735 14.7355L108.474 14.015C107.606 11.485 105.796 9.54705 103.569 8.45752C101.342 7.36808 98.7013 7.1278 96.1713 7.99533C93.6414 8.86286 91.7034 10.6732 90.6139 12.8998C89.5244 15.1266 89.2841 17.7676 90.1517 20.2976C91.0192 22.8276 92.8296 24.7655 95.0562 25.8551C97.283 26.9445 99.9241 27.1847 102.454 26.3173C103.093 26.0981 103.686 25.8256 104.229 25.5051C104.495 25.3488 104.754 25.1785 105.001 24.9996L98.721 19.002H113.644L113.63 20.1048L113.87 32.2713L110.068 29.0229C109.916 29.1699 109.781 29.3044 109.654 29.4302C109.146 29.9353 108.779 30.2997 108.051 30.7666C106.977 31.456 105.808 32.027 104.56 32.455C100.335 33.9037 95.9226 33.5025 92.2043 31.6833Z" fill="#FAFAFA"/>
</svg>
